<svg width="300" height="200" viewBox="0 0 300 200" xmlns="http://www.w3.org/2000/svg">
  <!-- Fond -->
  <rect width="300" height="200" fill="white"/>
  
  <!-- Header minimal -->
  <rect x="0" y="0" width="300" height="40" fill="#f9fafb"/>
  
  <!-- Nom minimal -->
  <rect x="20" y="10" width="100" height="8" fill="#111827" rx="1"/>
  <rect x="20" y="22" width="80" height="6" fill="#6b7280" rx="1"/>
  <rect x="20" y="30" width="60" height="4" fill="#9ca3af" rx="1"/>
  
  <!-- Ligne de séparation fine -->
  <rect x="20" y="50" width="260" height="1" fill="#e5e7eb"/>
  
  <!-- Contenu minimal -->
  <rect x="20" y="70" width="260" height="4" fill="#111827" rx="1"/>
  <rect x="20" y="85" width="200" height="4" fill="#6b7280" rx="1"/>
  <rect x="20" y="100" width="180" height="4" fill="#6b7280" rx="1"/>
  
  <!-- Section expérience minimal -->
  <rect x="20" y="120" width="80" height="6" fill="#111827" rx="1"/>
  <rect x="20" y="135" width="60" height="4" fill="#374151" rx="1"/>
  <rect x="20" y="145" width="100" height="4" fill="#6b7280" rx="1"/>
  <rect x="20" y="155" width="120" height="4" fill="#6b7280" rx="1"/>
  
  <!-- Section compétences minimal -->
  <rect x="180" y="120" width="100" height="6" fill="#111827" rx="1"/>
  <rect x="180" y="135" width="30" height="4" fill="#374151" rx="1"/>
  <rect x="220" y="135" width="30" height="4" fill="#374151" rx="1"/>
  <rect x="180" y="145" width="35" height="4" fill="#374151" rx="1"/>
  <rect x="225" y="145" width="30" height="4" fill="#374151" rx="1"/>
  <rect x="180" y="155" width="40" height="4" fill="#374151" rx="1"/>
  <rect x="230" y="155" width="25" height="4" fill="#374151" rx="1"/>
</svg> 